<?xml version="1.0" encoding="utf-8"?>
<!-- Generator: Adobe Illustrator 19.0.0, SVG Export Plug-In . SVG Version: 6.00 Build 0)  -->
<svg version="1.1"
	 id="svg2" xmlns:dc="http://purl.org/dc/elements/1.1/" xmlns:rdf="http://www.w3.org/1999/02/22-rdf-syntax-ns#" xmlns:cc="http://creativecommons.org/ns#" xmlns:svg="http://www.w3.org/2000/svg"
	 xmlns="http://www.w3.org/2000/svg" xmlns:xlink="http://www.w3.org/1999/xlink" x="0px" y="0px" viewBox="-467 269 24 24"
	 style="enable-background:new -467 269 24 24;" xml:space="preserve">
<style type="text/css">
	.st0{opacity:0.99;fill:#21BF00;enable-background:new    ;}
	.st1{opacity:0.5;fill:none;stroke:#005485;stroke-width:0.25;stroke-miterlimit:10;enable-background:new    ;}
	.st2{fill:#2F78C7;fill-opacity:0.9922;}
	.st3{fill:#FFFFFF;}
	.st4{opacity:0.5;fill:none;stroke:url(#path8655-6-0-9-5_1_);stroke-width:0.5;stroke-miterlimit:10;enable-background:new    ;}
</style>
<path id="path2555-7-8-5-0" class="st0" d="M-455,270.5c-5.8,0-10.5,4.7-10.5,10.5s4.7,10.5,10.5,10.5s10.5-4.7,10.5-10.5
	S-449.2,270.5-455,270.5z"/>
<path id="path2555-7-8-5" class="st1" d="M-455,270.5c-5.8,0-10.5,4.7-10.5,10.5s4.7,10.5,10.5,10.5s10.5-4.7,10.5-10.5
	S-449.2,270.5-455,270.5z"/>
<path id="path2922-6-6-0-9-4" class="st2" d="M-451,275.6l2,1.8l-6.8,8.9l-5.2-4.5l1.7-2.3l3.1,2.7
	C-456.2,282.2-451,275.6-451,275.6z"/>
<path id="path2922-6-6-0-9" class="st3" d="M-451,275.6l2,1.8l-6.8,8.9l-5.2-4.5l1.7-2.3l3.1,2.7C-456.2,282.2-451,275.6-451,275.6z
	"/>
<linearGradient id="path8655-6-0-9-5_1_" gradientUnits="userSpaceOnUse" x1="-454.9063" y1="270.5625" x2="-454.9063" y2="291.5625">
	<stop  offset="0" style="stop-color:#FFFFFF"/>
	<stop  offset="0.5078" style="stop-color:#FFFFFF;stop-opacity:0.2353"/>
	<stop  offset="0.8346" style="stop-color:#FFFFFF;stop-opacity:0.1569"/>
	<stop  offset="1" style="stop-color:#FFFFFF;stop-opacity:0.3922"/>
</linearGradient>
<path id="path8655-6-0-9-5" class="st4" d="M-444.5,281.1c0,5.7-4.7,10.3-10.4,10.3c-5.7,0-10.4-4.6-10.4-10.3
	c0-5.7,4.7-10.2,10.4-10.2C-449.2,270.8-444.5,275.4-444.5,281.1L-444.5,281.1z"/>
</svg>
