<?xml version="1.0" encoding="UTF-8" standalone="no"?>
<svg
   xmlns:dc="http://purl.org/dc/elements/1.1/"
   xmlns:cc="http://creativecommons.org/ns#"
   xmlns:rdf="http://www.w3.org/1999/02/22-rdf-syntax-ns#"
   xmlns:svg="http://www.w3.org/2000/svg"
   xmlns="http://www.w3.org/2000/svg"
   xmlns:sodipodi="http://sodipodi.sourceforge.net/DTD/sodipodi-0.dtd"
   xmlns:inkscape="http://www.inkscape.org/namespaces/inkscape"
   version="1.1"
   width="24"
   height="24"
   viewBox="0 0 24 24"
   id="svg2"
   inkscape:version="0.91 r13725"
   sodipodi:docname="fingerprint.svg">
  <sodipodi:namedview
     pagecolor="#ffffff"
     bordercolor="#666666"
     borderopacity="1"
     objecttolerance="10"
     gridtolerance="10"
     guidetolerance="10"
     inkscape:pageopacity="0"
     inkscape:pageshadow="2"
     inkscape:window-width="1704"
     inkscape:window-height="1000"
     id="namedview6"
     showgrid="false"
     inkscape:zoom="14.75"
     inkscape:cx="-6.6440678"
     inkscape:cy="8"
     inkscape:window-x="853"
     inkscape:window-y="398"
     inkscape:window-maximized="0"
     inkscape:current-layer="svg2" />
  <metadata
     id="metadata10">
    <rdf:RDF>
      <cc:Work
         rdf:about="">
        <dc:format>image/svg+xml</dc:format>
        <dc:type
           rdf:resource="http://purl.org/dc/dcmitype/StillImage" />
        <dc:title></dc:title>
      </cc:Work>
    </rdf:RDF>
  </metadata>
  <defs
     id="defs8" />
  <path
     style="display:inline;opacity:1;fill:#333333;fill-opacity:1;stroke:none;stroke-width:2;stroke-linecap:round;stroke-linejoin:round;stroke-miterlimit:4;stroke-dasharray:none;stroke-opacity:1;enable-background:new"
     d="m 11.52247,0.002921 c -3.0228898,-0.0645 -6.0691054,0.939045 -8.5253856,3.0249 a 0.75034339,0.75034339 0 1 0 0.9711902,1.14405 C 8.3115246,0.483626 14.708665,0.619586 18.890634,4.489736 a 0.75007465,0.75007465 0 1 0 1.019535,-1.1001 C 17.545089,1.200911 14.545361,0.067421 11.52247,0.002921 Z m -0.27246,2.994135 a 9.7499955,9.7499955 0 0 0 -9.7485306,9.70458 0.75007473,0.75007473 0 0 0 0,0.0015 0.75007473,0.75007473 0 0 0 -0.00147,0.0366 0.74999965,0.74999965 0 0 0 0,0.0075 0.74999965,0.74999965 0 0 0 0,0.0045 0.75007473,0.75007473 0 0 0 0,0.0045 c -1.5e-5,0.006 1.5e-5,0.0105 0,0.01605 a 0.74999965,0.74999965 0 0 0 0.00147,0.03375 c 9.151e-4,1.926016 0.35448,3.836099 1.04736,5.633789 A 0.75054078,0.75054078 0 1 0 3.9492246,17.899271 C 3.3171996,16.25944 2.9950444,14.517626 3.0000096,12.760601 a 0.75007473,0.75007473 0 0 0 0,-0.0135 8.2499962,8.2499962 0 0 1 8.2500004,-8.25 8.2499962,8.2499962 0 0 1 8.249999,8.25 2.249999,2.249999 0 0 1 -2.25,2.250001 2.249999,2.249999 0 0 1 -2.249999,-2.250001 3.7499983,3.7499983 0 0 0 -3.75,-3.75 3.7499983,3.7499983 0 0 0 -3.7485305,3.70605 3.7499983,3.7499983 0 0 0 -0.00147,0.04395 0.75007473,0.75007473 0 0 0 0,0.009 c -0.01515,5.333789 4.2989555,9.694109 9.6357435,9.741209 a 0.75007473,0.75007473 0 1 0 0.0135,-1.5 C 12.619286,20.95741 8.9875452,17.286191 9.0003402,12.760497 a 0.75007473,0.75007473 0 0 0 0,-0.0135 2.249999,2.249999 0 0 1 2.2499998,-2.250001 2.249999,2.249999 0 0 1 2.25,2.250001 3.7499983,3.7499983 0 0 0 3.749999,3.749999 3.7499983,3.7499983 0 0 0 3.75,-3.749999 9.7499955,9.7499955 0 0 0 -9.749999,-9.750001 z m 0,3 a 6.7499969,6.7499969 0 0 0 -6.7485304,6.703125 0.75007473,0.75007473 0 0 0 0,0.02055 6.7499969,6.7499969 0 0 0 -0.00147,0.0264 0.75007473,0.75007473 0 0 0 0,0.009 c -0.012,4.100625 1.9602,7.956359 5.2924807,10.350569 a 0.75007473,0.75007473 0 0 0 0.4936497,0.14505 0.75007473,0.75007473 0 0 0 0.0747,-0.009 0.75007473,0.75007473 0 0 0 0.30615,-1.354966 C 7.7265395,19.775095 5.9897646,16.377731 5.9999946,12.760346 a 0.75007473,0.75007473 0 0 0 0,-0.0135 5.2499976,5.2499976 0 0 1 5.2500004,-5.25 5.2499976,5.2499976 0 0 1 5.250001,5.25 0.74999965,0.74999965 0 0 0 0.749998,0.75 0.74999965,0.74999965 0 0 0 0.75,-0.75 0.74999965,0.74999965 0 0 0 -0.003,-0.07035 6.7499969,6.7499969 0 0 0 -6.747059,-6.67968 z m -0.009,5.97216 a 0.75007465,0.75007465 0 0 0 -0.74121,0.75879 c 0,0.003 1.4e-5,0.0075 0,0.0105 a 0.74999965,0.74999965 0 0 0 0,0.009 0.74999965,0.74999965 0 0 0 0.0045,0.07905 c 0.04275,3.658169 3.01545,6.63849 6.685543,6.670904 a 0.75007465,0.75007465 0 1 0 0.0135,-1.5 c -2.890857,-0.02549 -5.203393,-2.360915 -5.203123,-5.24999 a 0.74999965,0.74999965 0 0 0 0,-0.015 0.75007465,0.75007465 0 0 0 -0.75879,-0.763185 z"
     id="path4449"
     inkscape:connector-curvature="0" />
</svg>
