<?xml version="1.0" encoding="UTF-8" standalone="no"?>
<svg
   xmlns:dc="http://purl.org/dc/elements/1.1/"
   xmlns:cc="http://creativecommons.org/ns#"
   xmlns:rdf="http://www.w3.org/1999/02/22-rdf-syntax-ns#"
   xmlns:svg="http://www.w3.org/2000/svg"
   xmlns="http://www.w3.org/2000/svg"
   version="1.1"
   width="32"
   height="32"
   id="svg4354"
   viewBox="0 0 32 32">
  <defs
     id="defs4356" />
  <metadata
     id="metadata4359">
    <rdf:RDF>
      <cc:Work
         rdf:about="">
        <dc:format>image/svg+xml</dc:format>
        <dc:type
           rdf:resource="http://purl.org/dc/dcmitype/StillImage" />
        <dc:title></dc:title>
      </cc:Work>
    </rdf:RDF>
  </metadata>
  <path
     id="path4155-3"
     d="m 16.019642,3 c 1.096254,0.024976 2.235787,0.08305 3.310547,0.3652344 C 18.245932,3.1291686 17.124682,3.0075733 16.002064,3.0078125 V 13.435547 a 1.5,1.5 0 0 0 1.5,1.5 v 0.0039 c 1.873636,-0.08441 3.716261,-0.311236 5.449219,-0.712891 0.0026,-6e-4 0.0052,-0.0014 0.0078,-0.002 0.009,0.541574 0.01402,1.083309 0.01563,1.625 3.31e-4,0.08988 0.0038,0.179646 0.0039,0.269532 4.74e-4,0.03971 -5.26e-4,0.07943 0,0.11914 0.0026,0.253879 0.0088,0.507745 0.0059,0.761719 h -0.0078 c -0.0097,0.954873 -0.04327,1.909799 -0.08984,2.863281 -0.02414,0.613642 -0.04586,1.227542 -0.08594,1.839844 v 0.002 c -0.01044,0.03241 -0.01768,0.06578 -0.02148,0.09961 -0.137132,1.197642 -0.181451,2.425415 -0.433594,3.617187 -0.01421,0.09295 -0.02233,0.18641 -0.03711,0.279297 v 0.0059 c -0.09037,0.458848 -0.258047,0.91929 -0.503907,1.332031 -0.05927,0.100661 -0.123857,0.195825 -0.195312,0.28711 -0.389801,0.52858 -0.926747,0.946206 -1.634766,1.115234 -0.0013,10e-5 -0.0026,-1.09e-4 -0.0039,0 -0.004,4e-4 -0.0078,0.0016 -0.01172,0.002 -0.189502,0.06694 -0.377904,0.138491 -0.572265,0.181641 -0.459595,0.101891 -0.927542,0.17522 -1.398438,0.234375 -0.0046,6.37e-4 -0.0091,0.0013 -0.01367,0.002 -0.02012,0.0028 -0.04042,0.0033 -0.06055,0.0059 -0.0687,0.0092 -0.138214,0.01138 -0.207031,0.01953 -0.240754,0.026 -0.480583,0.05861 -0.722656,0.07422 -0.0084,5.44e-4 -0.01695,-5.31e-4 -0.02539,0 -0.319155,0.02063 -0.6386,0.03122 -0.958984,0.03125 -0.319731,-7e-5 -0.638526,-0.01067 -0.957031,-0.03125 -0.0084,-5.3e-4 -0.01695,5.44e-4 -0.02539,0 -0.242073,-0.01561 -0.481902,-0.04821 -0.722656,-0.07422 -0.09365,-0.01011 -0.187894,-0.01562 -0.28125,-0.02734 C 13.542886,28.80022 13.07494,28.726891 12.615345,28.625 12.420984,28.58185 12.232582,28.510299 12.04308,28.443359 c -0.0039,-4e-4 -0.0077,-0.0016 -0.01172,-0.002 -0.0013,-1.09e-4 -0.0026,10e-5 -0.0039,0 -0.708096,-0.169047 -1.246908,-0.586571 -1.636719,-1.115234 -0.07319,-0.09352 -0.138837,-0.191558 -0.199219,-0.294922 C 9.94839,26.620641 9.783231,26.162787 9.69347,25.707031 v -0.0059 C 9.678686,25.608285 9.67057,25.514823 9.656361,25.421875 9.404218,24.230103 9.359899,23.00233 9.222767,21.804688 c -0.0038,-0.03383 -0.011044,-0.0672 -0.021484,-0.09961 v -0.002 C 9.161208,21.090823 9.139489,20.476923 9.115345,19.863281 9.068771,18.909799 9.035235,17.954873 9.025502,17 h -0.00781 c -0.0029,-0.253974 0.00326,-0.50784 0.00586,-0.761719 5.27e-4,-0.03971 -4.73e-4,-0.07943 0,-0.11914 1.26e-4,-0.08989 0.00358,-0.17965 0.00391,-0.269532 0.0016,-0.541691 0.00664,-1.083426 0.015625,-1.625 0.00259,6.01e-4 0.00522,0.0014 0.00781,0.002 0.00192,-0.102843 0.00166,-0.205767 0.00391,-0.308593 -0.00104,0.04432 -0.00487,0.08849 -0.00586,0.132812 -0.0013,0.05797 -0.00456,0.115858 -0.00586,0.173828 0.00323,-0.195391 0.011307,-0.390588 0.015625,-0.585937 0.00424,-0.171935 0.00849,-0.343756 0.013671,-0.515625 0.017058,-0.602582 0.042138,-1.204838 0.078126,-1.806641 0.01326,-0.258967 0.019343,-0.518636 0.035156,-0.777344 0.00267,-0.0083 0.00391,-0.01693 0.00586,-0.02539 0.00242,-0.07232 0.00506,-0.144641 0.00977,-0.216797 v -0.002 c 0.01044,-0.03241 0.017684,-0.06578 0.021484,-0.09961 0.020237,-0.176769 0.033884,-0.3572619 0.050781,-0.5351558 0.00179,-0.018843 0.00409,-0.037787 0.00586,-0.056641 C 9.290728,9.4762317 9.303724,9.349725 9.314564,9.2226562 9.325544,9.1100521 9.334204,8.9973216 9.345814,8.8847656 9.349501,8.8409512 9.355799,8.7974696 9.361439,8.7539062 9.391561,8.4111671 9.420476,8.0705177 9.461048,7.7285156 9.536841,7.0234327 9.647327,6.3262333 9.896595,5.671875 9.913686,5.6202672 9.924853,5.5676161 9.939564,5.515625 9.943996,5.4999604 9.947603,5.4842105 9.953236,5.46875 l 0.00195,-0.00977 c 10e-5,-2.1e-4 0.00511,-0.022453 0.00781,-0.033203 0.085146,-0.2514259 0.215367,-0.4719587 0.365234,-0.6777343 0.07791,-0.1069725 0.163586,-0.2078159 0.255859,-0.3027344 0.02841,-0.029223 0.04849,-0.065657 0.07813,-0.09375 0.0018,-0.00215 0.0041,-0.00371 0.0059,-0.00586 0.03932,-0.048152 0.06549,-0.1011785 0.107422,-0.1484375 0.0038,-0.00315 0.0071,-0.00698 0.01172,-0.00977 0.0059,-0.00379 0.01178,-0.00769 0.01758,-0.011719 0.119307,-0.079329 0.243646,-0.1446427 0.367188,-0.2128906 0.0038,-0.0021 0.0079,-0.00375 0.01172,-0.00586 0.0061,-0.00367 0.01152,-0.00803 0.01758,-0.011719 0.0069,-0.00431 0.01456,-0.00745 0.02148,-0.011719 -0.0068,0.0042 -0.01277,0.00942 -0.01953,0.013672 0.188218,-0.1177585 0.38923,-0.21688 0.595703,-0.3046875 C 12.063361,3.5301267 12.33661,3.4368875 12.615345,3.375 c 0.009,-0.00199 0.01834,-0.00194 0.02734,-0.00391 0.009,-0.0024 0.01833,-0.00349 0.02734,-0.00586 C 13.745315,3.082644 14.885673,3.0249895 15.982533,3 h 0.0039 c 0.0029,-9.09e-5 0.0069,-9.09e-5 0.0098,0 0.0032,-1.226e-4 0.0066,1.215e-4 0.0098,0 0.0029,-9.09e-5 0.0069,-9.09e-5 0.0098,0 z m -4.220703,0.6425781 c -0.153267,0.069853 -0.298723,0.1412161 -0.439453,0.2148438 0.07931,-0.044766 0.157344,-0.091308 0.240234,-0.1308594 0.0062,-0.00415 0.0098,-0.00714 0.01367,-0.00977 0.0027,-8.2e-4 0.0088,-0.00245 0.01367,-0.00391 0.0022,-6.3e-4 0.0058,-0.00194 0.0059,-0.00195 l 0.0078,-0.00391 c 0.05164,-0.023974 0.105695,-0.042253 0.158203,-0.064453 z M 22.959095,14.224609 c -0.0013,-0.05797 -0.0046,-0.115858 -0.0059,-0.173828 -9.89e-4,-0.04432 -0.0048,-0.0885 -0.0059,-0.132812 -0.02673,-1.137731 -0.06794,-2.27508 -0.138671,-3.410157 -0.0045,-0.0181 -0.0091,-0.03619 -0.01172,-0.05469 -0.03554,-0.257392 -0.05462,-0.5234193 -0.06836,-0.7929688 0.0158,0.1789685 0.03053,0.3583748 0.05078,0.5351558 0.0038,0.03383 0.01104,0.0672 0.02148,0.09961 v 0.002 c 0.0047,0.07216 0.0073,0.144477 0.0098,0.216797 0.0019,0.0085 0.0032,0.0171 0.0059,0.02539 0.01581,0.258709 0.0219,0.518377 0.03516,0.777344 0.03599,0.601803 0.06107,1.204059 0.07813,1.806641 0.0052,0.171869 0.0094,0.34369 0.01367,0.515625 0.0043,0.195349 0.01239,0.390546 0.01563,0.585937 z M 20.203236,3.6425781 c 0.05251,0.0222 0.106563,0.040479 0.158203,0.064453 l 0.0078,0.00391 c 9.9e-5,1e-5 0.0037,0.00132 0.0059,0.00195 0.0049,0.00146 0.01097,0.00309 0.01367,0.00391 0.0039,0.00263 0.0075,0.00562 0.01367,0.00977 0.08289,0.039551 0.160924,0.086093 0.240234,0.1308594 -0.133191,-0.069684 -0.271742,-0.1368587 -0.416016,-0.203125 -0.0081,-0.00347 -0.01535,-0.00828 -0.02344,-0.011719 z m 0.576172,0.2910157 c 0.0069,0.00427 0.01458,0.00741 0.02148,0.011719 0.0061,0.00369 0.01152,0.00805 0.01758,0.011719 0.0037,0.00227 0.008,0.00359 0.01172,0.00586 0.123542,0.068248 0.247881,0.1335612 0.367187,0.2128906 0.0058,0.00403 0.01168,0.00793 0.01758,0.011719 0.0046,0.00279 0.0079,0.00662 0.01172,0.00977 0.04193,0.047259 0.0681,0.1002855 0.107422,0.1484375 0.0018,0.00215 0.0041,0.00371 0.0059,0.00586 0.0286,0.027114 0.04929,0.061172 0.07617,0.089844 -0.183682,-0.1870823 -0.390707,-0.3526712 -0.617187,-0.4941406 -0.0068,-0.00425 -0.01272,-0.00948 -0.01953,-0.013672 z m 1.085937,1.1113281 c 0.06809,0.1200771 0.127942,0.2453635 0.173828,0.3808593 C 21.993404,5.290622 21.931087,5.1665775 21.865345,5.0449219 Z m 0.490235,1.5195312 c 0.04252,0.198355 0.07401,0.3994665 0.103515,0.6015625 -0.0316,-0.200726 -0.06105,-0.4026013 -0.103515,-0.6015625 z m 0.285156,2.1894531 c 0.0056,0.043564 0.01191,0.087045 0.01563,0.1308594 0.01161,0.112556 0.02027,0.2252864 0.03125,0.3378906 0.01084,0.1270688 0.02384,0.2535755 0.03516,0.3808594 -0.02596,-0.2825133 -0.05751,-0.5659135 -0.08203,-0.8496094 z"
     style="color:#000000;display:inline;overflow:visible;visibility:visible;opacity:0.1;vector-effect:none;fill:#555761;fill-opacity:1;fill-rule:nonzero;stroke:none;stroke-width:1;stroke-linecap:round;stroke-linejoin:round;stroke-miterlimit:4;stroke-dasharray:none;stroke-dashoffset:0;stroke-opacity:1;marker:none;paint-order:normal;enable-background:accumulate" />
  <path
     id="path1092"
     d="M 16.002082,1.9863281 C 15.916449,1.986284 15.831803,1.99873 15.746223,2 h -0.744141 v 0.039063 c -0.88123,0.052474 -1.756756,0.1512531 -2.607422,0.3398437 -1.374533,0.3051877 -2.859605,1.1272599 -3.398437,2.71875 -0.0089,0.02636 -0.01674,0.053078 -0.02344,0.080078 -0.0055,0.02202 -0.0077,0.030282 -0.0098,0.039063 -9e-4,0.0035 -0.0015,0.00591 -0.002,0.00781 -0.593847,1.698855 -0.586168,3.3694147 -0.75,4.8242183 -0.01671,0.07044 -0.02584,0.142464 -0.02734,0.214844 -5e-4,0.0065 -0.0015,0.01303 -0.002,0.01953 -0.144868,2.230395 -0.206158,4.472076 -0.179688,6.716797 h 0.0078 c 0.03233,2.903924 0.214837,5.814579 0.666015,8.707031 6.4e-4,0.0517 0.0052,0.103287 0.01367,0.154297 0.0017,0.01436 0.0036,0.02869 0.0059,0.04297 0.289586,1.470364 1.268944,3.092253 3.099609,3.529297 0.03732,0.0093 0.07515,0.01648 0.113281,0.02148 1.325827,0.38224 2.699806,0.555594 4.068359,0.558594 1.385183,0.0013 2.77511,-0.171669 4.117188,-0.558594 0.03813,-0.005 0.07596,-0.01218 0.113281,-0.02148 1.830665,-0.437044 2.810024,-2.058933 3.09961,-3.529297 0.0023,-0.01428 0.0042,-0.02861 0.0059,-0.04297 0.0085,-0.05101 0.01303,-0.102597 0.01367,-0.154297 C 23.777432,22.81459 23.959986,19.903924 23.992317,17 h 0.0078 c 0.02647,-2.244721 -0.03495,-4.486399 -0.179688,-6.716797 -5e-4,-0.0065 -0.0015,-0.01303 -0.002,-0.01953 -0.0015,-0.07238 -0.01063,-0.144404 -0.02734,-0.214844 -0.163832,-1.4548039 -0.156153,-3.1253636 -0.75,-4.8242186 -5e-4,-0.0019 -0.0011,-0.00431 -0.002,-0.00781 -0.0021,-0.00878 -0.0043,-0.017043 -0.0098,-0.039063 -0.0067,-0.027 -0.01454,-0.053718 -0.02344,-0.080078 C 22.467176,3.5061695 20.982094,2.6840971 19.607561,2.3789094 18.435719,2.1191147 17.221392,1.9858173 16.002092,1.9863313 Z M 15.982551,3 h 0.0039 c 0.0029,-9.09e-5 0.0069,-9.09e-5 0.0098,0 0.495527,0.018923 1.005217,0.048133 1.515625,0.089844 0.09986,0.00955 0.199277,0.015893 0.298828,0.027344 0.514927,0.051587 1.026913,0.1231999 1.527344,0.25 0.01603,0.0035 0.03281,0.00426 0.04883,0.00781 0.333733,0.074099 0.662568,0.1871705 0.974609,0.3320312 l 0.0078,0.00391 c 3.3e-5,1.51e-5 0.0037,0.00132 0.0059,0.00195 0.0049,0.00146 0.01102,0.00309 0.01367,0.00391 0.0039,0.00263 0.0075,0.00562 0.01367,0.00977 0.137727,0.065717 0.270308,0.1386233 0.398437,0.21875 0.05038,0.030675 0.100907,0.060515 0.148438,0.09375 0.493884,0.3429066 0.891547,0.8011241 1.089843,1.3867187 0.0027,0.01075 0.0077,0.032993 0.0078,0.033203 l 0.002,0.00977 c 0.0056,0.01546 0.0082,0.031394 0.01367,0.046875 0.121619,0.3098682 0.200305,0.6320263 0.265625,0.9570312 0.05067,0.2275872 0.08897,0.4574763 0.125,0.6875 v 0.00195 c 0.08954,0.5722354 0.154346,1.1459649 0.203125,1.7226562 0.01161,0.112556 0.02027,0.2252862 0.03125,0.3378906 0.02768,0.3245765 0.055,0.6513642 0.0918,0.9726561 0.0038,0.03383 0.01104,0.0672 0.02148,0.09961 v 0.002 c 0.0099,0.152097 0.01059,0.304852 0.01953,0.457031 0.132703,1.824905 0.166633,3.654954 0.158204,5.484375 0.0026,0.253879 0.0088,0.507745 0.0059,0.761719 h -0.0098 c -0.0099,0.707581 -0.02541,1.41409 -0.05273,2.121094 -0.0028,0.07427 -0.0087,0.148394 -0.01172,0.222656 -0.03233,0.786743 -0.05798,1.574185 -0.109375,2.359375 v 0.002 c -0.01044,0.03241 -0.01768,0.06578 -0.02148,0.09961 -0.141003,1.231451 -0.179346,2.495525 -0.451172,3.71875 -0.0092,0.05912 -0.01403,0.118635 -0.02344,0.177734 v 0.0059 c -0.05724,0.290635 -0.144797,0.581662 -0.263672,0.861328 -5.95e-4,0.0025 -0.0015,0.0039 -0.002,0.0059 -0.0014,0.0032 -0.0025,0.0065 -0.0039,0.0098 -0.0026,0.0076 -0.0071,0.01394 -0.0098,0.02148 -0.149573,0.422436 -0.400607,0.779255 -0.71875,1.072265 -0.289298,0.292712 -0.642201,0.522976 -1.056641,0.669922 -0.06075,0.02614 -0.125582,0.039 -0.1875,0.0625 -0.03174,0.0088 -0.05936,0.02351 -0.0918,0.03125 -0.004,3.06e-4 -0.0078,0.0016 -0.01172,0.002 -0.189502,0.06694 -0.377904,0.138487 -0.572265,0.181641 -0.784958,0.174024 -1.591162,0.283635 -2.402344,0.335938 -0.327005,0.02108 -0.654403,0.03128 -0.982422,0.03125 -0.640769,-5.6e-5 -1.279945,-0.04006 -1.914062,-0.125 -0.02013,-0.0026 -0.04043,-0.0031 -0.06055,-0.0059 -0.263203,-0.03644 -0.524877,-0.08296 -0.785156,-0.134766 -0.06366,-0.01255 -0.127955,-0.02165 -0.191407,-0.03516 -0.312151,-0.06693 -0.621757,-0.144391 -0.927734,-0.234375 -0.0012,-3.28e-4 -0.0027,3.19e-4 -0.0039,0 -0.02883,-0.0076 -0.05819,-0.01309 -0.08789,-0.01563 -0.0013,-1.09e-4 -0.0026,10e-5 -0.0039,0 -1.350242,-0.32235 -2.098167,-1.537022 -2.333984,-2.734375 v -0.0059 C 9.235158,22.821544 9.055203,19.911616 9.02552,17 h -0.0078 c -0.0033,-0.293696 0.0024,-0.587277 0.0059,-0.880859 0.0026,-1.862829 0.04872,-3.725016 0.162109,-5.580079 0.0033,-0.01025 0.0052,-0.02083 0.0078,-0.03125 0.0044,-0.0702 0.0032,-0.140753 0.0078,-0.210937 v -0.002 c 0.01044,-0.03241 0.01768,-0.06578 0.02148,-0.09961 C 9.316107,9.3803126 9.363469,8.5512318 9.461067,7.7285156 9.53686,7.0234327 9.647346,6.3262333 9.896614,5.671875 9.918851,5.604718 9.928929,5.5355239 9.953254,5.46875 l 0.002,-0.00977 c 10e-5,-2.1e-4 0.0051,-0.022453 0.0078,-0.033203 0.143037,-0.4223704 0.388136,-0.7793554 0.699218,-1.0742187 0.0018,-0.00215 0.0041,-0.00371 0.0059,-0.00586 0.03932,-0.048152 0.06549,-0.1011784 0.107422,-0.1484375 0.0038,-0.00315 0.0071,-0.00698 0.01172,-0.00977 0.0059,-0.00379 0.01178,-0.00769 0.01758,-0.011719 0.122985,-0.081774 0.251556,-0.148157 0.378829,-0.2187406 0.4337,-0.2746412 0.928151,-0.4702418 1.43164,-0.5820312 0.009,-0.00199 0.01837,-0.00194 0.02734,-0.00391 C 13.725887,3.0822916 14.876495,3.0251987 15.982551,3 Z"
     style="opacity:1;vector-effect:none;fill:#555761;fill-opacity:1;stroke:none;stroke-width:1;stroke-linecap:butt;stroke-linejoin:miter;stroke-miterlimit:4;stroke-dasharray:none;stroke-dashoffset:0;stroke-opacity:1;marker:none;paint-order:normal" />
  <path
     id="rect1141"
     d="m 16.002064,3.0078125 c 1.141919,-2.433e-4 2.283199,0.122972 3.384766,0.3671875 0.260746,0.057893 0.517718,0.1432587 0.767578,0.2441406 0.206087,0.092966 0.402413,0.1870074 0.585937,0.2871094 0.590173,0.3536149 1.073336,0.8536466 1.298828,1.5195312 0.0027,0.01075 0.0077,0.032993 0.0078,0.033203 l 0.002,0.00977 c 0.486527,1.3355391 0.546357,2.7474171 0.673828,4.1347656 0.01347,0.2895538 0.03614,0.5738044 0.07422,0.8496094 0.0026,0.0185 0.0072,0.03659 0.01172,0.05469 0.07349,1.17929 0.118146,2.360882 0.144531,3.542969 0.0013,0.05797 0.0046,0.115858 0.0059,0.173828 -1.735219,0.402778 -3.580594,0.630312 -5.457031,0.714844 v -0.0039 a 1.5,1.5 0 0 1 -1.5,-1.5 z"
     style="opacity:0.4;vector-effect:none;fill:#555761;fill-opacity:1;stroke:none;stroke-width:1;stroke-linecap:round;stroke-linejoin:round;stroke-miterlimit:4;stroke-dasharray:none;stroke-dashoffset:0;stroke-opacity:1;marker:none;paint-order:normal" />
</svg>
