<?xml version="1.0" encoding="utf-8"?>
<!-- Generator: Adobe Illustrator 19.0.0, SVG Export Plug-In . SVG Version: 6.00 Build 0)  -->
<svg version="1.1" id="Layer_1" xmlns="http://www.w3.org/2000/svg" xmlns:xlink="http://www.w3.org/1999/xlink" x="0px" y="0px"
	 viewBox="-224 25 511 511" style="enable-background:new -224 25 511 511;" xml:space="preserve">
<style type="text/css">
	.st0{fill:#8BF1A9;}
	.st1{fill:#6AE49C;}
	.st2{fill:#18191B;}
	.st3{fill:#FFFFFF;}
	.st4{fill:#F9F9F9;}
	.st5{fill:#FFC15A;}
</style>
<path class="st0" d="M-3.6,324.8c-13.9-11.2-31.8-14.5-45.4-15.1c-10.9-0.5-19.1,9.7-16.3,20.2c3.4,13.1,10.4,30,24.3,41.2
	c25.6,20.7,54.7,27,65,14.3C34.3,372.6,21.9,345.5-3.6,324.8z"/>
<path class="st0" d="M56,384c-23.2,23.2-32.7,51.5-21,63.1c11.6,11.6,39.9,2.2,63.1-21c12.6-12.6,17.7-30.1,19.8-43.5
	c1.6-10.8-7.6-20-18.4-18.4C86.2,366.3,68.7,371.4,56,384z"/>
<path class="st1" d="M99.6,364.2c-5.2,0.8-11,2-16.8,4c3.8,3.5,5.9,8.7,5.1,14.3c-2,13.4-7.2,30.9-19.8,43.5
	c-10.3,10.3-21.5,17.8-31.9,22.1c12.2,10,39.5,0.4,62-22.1c12.6-12.6,17.7-30.1,19.8-43.5C119.6,371.8,110.3,362.6,99.6,364.2z"/>
<path class="st2" d="M173.5,420.8c-4.2,0-7.5,3.4-7.5,7.5c0,36.2-29.5,65.6-65.6,65.6c-26.7,0-49.8-16.1-60-39.1
	c2.4,0.6,4.9,0.9,7.6,0.9c15.9,0,36.3-10.1,54.5-28.3c14.3-14.3,19.8-33.8,21.9-47.7c1.2-7.5-1.3-14.9-6.6-20.3
	c-5.4-5.4-12.8-7.8-20.3-6.6c-13.9,2.1-33.5,7.6-47.7,21.9c-5.8,5.8-10.8,11.9-15,18.2V316H19.7v18.8C14.4,328,7.9,321.2,0.1,315
	c-15.7-12.7-35.7-16.1-49.8-16.7c-7.6-0.3-14.7,2.8-19.5,8.7c-4.8,5.9-6.4,13.5-4.5,20.9c2.4,9.1,5.7,17.4,9.8,24.6
	c2.1,3.6,6.6,4.9,10.3,2.8c3.6-2.1,4.9-6.6,2.8-10.3c-3.5-6.1-6.3-13.2-8.3-21c-0.7-2.7-0.1-5.4,1.6-7.6c1.7-2.1,4.3-3.3,7.1-3.2
	c11.8,0.5,28.5,3.3,41,13.4c16.4,13.2,26.1,28.6,28.1,39.4L2.3,354c-3.3-2.5-8.1-1.8-10.5,1.6c-2.5,3.3-1.8,8.1,1.6,10.5l18.6,13.7
	c-9.3,2.6-26.8-1.9-44.9-15.2c-3.4-2.5-8.1-1.7-10.5,1.6c-2.5,3.4-1.7,8.1,1.6,10.5c16.9,12.3,34.1,18.7,48,18.7
	c5,0,9.6-0.8,13.5-2.5v35.4c0,44.5,36.2,80.7,80.7,80.7s80.7-36.2,80.7-80.7C181.1,424.1,177.7,420.8,173.5,420.8z M38.6,418.3
	c3.6-10.8,11.3-22.5,21.8-33C71.7,374,88,369.5,99.7,367.7c0.4-0.1,0.9-0.1,1.3-0.1c2.3,0,4.4,0.9,6,2.5c1.9,1.9,2.8,4.6,2.4,7.4
	c-1.8,11.7-6.3,28-17.7,39.3C73.6,435,53.1,443,43.2,440l19.9-14.7c3.3-2.5,4.1-7.2,1.6-10.5c-2.5-3.3-7.2-4.1-10.5-1.6L36.8,426
	C37.1,423.6,37.7,421.1,38.6,418.3z"/>
<path class="st3" d="M45.4,91.7c0-25.8-8.5-43.4-18.9-43.4S7.6,65.9,7.6,91.7s8.5,49.8,18.9,49.8S45.4,117.4,45.4,91.7z"/>
<path class="st3" d="M7.6,263.3c0,25.8,8.5,43.4,18.9,43.4s18.9-17.7,18.9-43.4s-8.5-49.8-18.9-49.8S7.6,237.6,7.6,263.3z"/>
<path class="st4" d="M0,93.7c-12.9-22.3-29.1-33.4-38.1-28.2s-7.5,24.8,5.3,47.1c12.9,22.3,32.2,38.9,41.3,33.7S12.9,116,0,93.7z"/>
<path class="st4" d="M53,261.3c12.9,22.3,29.1,33.4,38.1,28.2c9-5.2,7.5-24.8-5.3-47.1c-12.9-22.3-32.2-38.9-41.3-33.7
	S40.1,239,53,261.3z"/>
<path class="st3" d="M-38.4,118.2c-22.3-12.9-41.8-14.4-47.1-5.3s5.9,25.2,28.2,38.1c22.3,12.9,47.4,17.6,52.6,8.5
	S-16.1,131.1-38.4,118.2z"/>
<path class="st3" d="M91.4,236.8c22.3,12.9,41.8,14.4,47.1,5.3c5.2-9-5.9-25.2-28.2-38.1c-22.3-12.9-47.4-17.6-52.6-8.5
	S69.1,223.9,91.4,236.8z"/>
<path class="st4" d="M-59.3,158.6c-25.8,0-43.4,8.5-43.4,18.9s17.7,18.9,43.4,18.9s49.8-8.5,49.8-18.9S-33.6,158.6-59.3,158.6z"/>
<path class="st4" d="M112.3,196.4c25.8,0,43.4-8.5,43.4-18.9s-17.7-18.9-43.4-18.9s-49.8,8.5-49.8,18.9S86.6,196.4,112.3,196.4z"/>
<path class="st3" d="M-57.3,204c-22.3,12.9-33.4,29.1-28.2,38.1s24.8,7.5,47.1-5.3c22.3-12.9,38.9-32.2,33.7-41.3
	S-35,191.1-57.3,204z"/>
<path class="st3" d="M110.3,151c22.3-12.9,33.4-29.1,28.2-38.1c-5.2-9-24.8-7.5-47.1,5.3c-22.3,12.9-38.9,32.2-33.7,41.3
	S88,163.9,110.3,151z"/>
<path class="st4" d="M-32.8,242.4c-12.9,22.3-14.4,41.8-5.3,47.1c9,5.2,25.2-5.9,38.1-28.2c12.9-22.3,17.6-47.4,8.5-52.6
	S-19.9,220.1-32.8,242.4z"/>
<path class="st4" d="M85.8,112.6c12.9-22.3,14.4-41.8,5.3-47.1S65.9,71.4,53,93.7c-12.9,22.3-17.6,47.4-8.5,52.6
	S72.9,134.9,85.8,112.6z"/>
<path class="st5" d="M62.5,177.5c0,19.9-16.1,36-36,36s-36-16.1-36-36s16.1-36,36-36S62.5,157.6,62.5,177.5z"/>
<path d="M161,177.5c0-13.5-18.1-23.2-44.6-24.1c22.5-14,33.3-31.4,26.6-43.2c-6.8-11.7-27.3-11-50.7,1.4
	c12.4-23.4,13.2-43.9,1.4-50.7C82,54.2,64.6,65.1,50.6,87.6C49.7,61.1,40,43,26.5,43S3.3,61.1,2.4,87.6C-11.6,65.1-29,54.2-40.8,61
	c-11.7,6.8-11,27.3,1.4,50.7c-23.4-12.4-43.9-13.2-50.7-1.4c-6.8,11.7,4.1,29.1,26.6,43.2c-26.5,0.9-44.6,10.6-44.6,24.1
	s18.1,23.2,44.6,24.1c-22.5,14-33.3,31.4-26.6,43.2c3.2,5.6,9.6,8.4,17.9,8.4c9.1,0,20.5-3.3,32.7-9.8
	c-12.4,23.4-13.2,43.9-1.4,50.7c2.3,1.3,4.9,2,7.6,2c10.9,0,24.3-10.6,35.6-28.6c0.2,7.1,1.1,13.7,2.6,19.6c0.6,2.3,1.2,4.5,2,6.5
	c0.8,2.1,2.8,3.4,4.9,3.4c0.6,0,1.2-0.1,1.8-0.3c2.7-1,4.1-4,3.1-6.7c-0.6-1.7-1.2-3.5-1.7-5.5c-1.5-6.1-2.4-13.5-2.4-21.1
	c0-26.2,8.9-44.6,13.7-44.6s13.7,18.4,13.7,44.6c0,7.7-0.8,15-2.4,21.1c-0.5,1.9-1,3.7-1.6,5.3c-1,2.7,0.4,5.7,3.1,6.7
	c2.7,1,5.7-0.4,6.7-3.1c0.7-2,1.4-4.1,1.9-6.4c1.5-5.9,2.3-12.5,2.6-19.6c11.2,18,24.6,28.6,35.6,28.6c2.7,0,5.3-0.6,7.6-2
	c11.7-6.8,11-27.3-1.4-50.7c12.2,6.5,23.6,9.8,32.7,9.8c8.3,0,14.7-2.8,17.9-8.4c6.8-11.7-4.1-29.1-26.6-43.2
	C142.9,200.7,161,191,161,177.5z M94,122.8c13-7.5,23.9-10.3,31.1-10.3c4.6,0,7.7,1.2,8.8,3.1c2.8,4.8-4.9,18.6-26.2,30.9
	c-22.7,13.1-43,14.6-45.4,10.5C59.8,152.7,71.3,135.9,94,122.8z M57.6,96.4c10.7-18.5,22.5-26.8,28.6-26.8c0.9,0,1.7,0.2,2.3,0.5
	c4.8,2.8,5,18.6-7.3,39.9c-13.1,22.7-30,34.2-34.1,31.8C43,139.4,44.5,119,57.6,96.4z M26.5,53.5c5.6,0,13.7,13.6,13.7,38.2
	c0,26.2-8.9,44.6-13.7,44.6s-13.7-18.4-13.7-44.6C12.8,67.1,20.9,53.5,26.5,53.5z M-35.5,70.1c0.6-0.4,1.4-0.5,2.3-0.5
	c6.1,0,17.9,8.3,28.6,26.8C8.5,119,10,139.4,5.9,141.8c-0.4,0.2-0.8,0.3-1.4,0.3c-5.7,0-20.8-11.4-32.8-32.1
	C-40.5,88.7-40.3,72.9-35.5,70.1z M-80.9,115.5c1.1-1.9,4.2-3.1,8.8-3.1c7.2,0,18.1,2.9,31.1,10.3c22.7,13.1,34.2,30,31.8,34.1
	c-2.4,4.2-22.7,2.6-45.4-10.5C-75.9,134.1-83.7,120.3-80.9,115.5z M-97.5,177.5c0-5.6,13.6-13.7,38.2-13.7
	c26.2,0,44.6,8.9,44.6,13.7s-18.4,13.7-44.6,13.7C-83.9,191.2-97.5,183.1-97.5,177.5z M-41,232.2c-21.3,12.3-37.1,12.1-39.9,7.3
	c-2.8-4.8,4.9-18.6,26.2-30.9c15.5-9,30-12.5,38.3-12.5c3.8,0,6.4,0.7,7.1,2.1C-6.8,202.3-18.3,219.1-41,232.2z M-4.6,258.6
	c-12.3,21.3-26.1,29-30.9,26.2c-4.8-2.8-5-18.6,7.3-39.9c13.1-22.7,30-34.2,34.1-31.8C10,215.6,8.5,236-4.6,258.6z M4.8,199.2
	c-12-12-12-31.5,0-43.5c6-6,13.9-9,21.7-9s15.7,3,21.7,9c12,12,12,31.5,0,43.5S16.8,211.2,4.8,199.2z M88.5,284.9
	c-0.6,0.4-1.4,0.5-2.3,0.5c-6.1,0-17.9-8.3-28.6-26.8c-13.1-22.7-14.6-43-10.5-45.4c0.4-0.2,0.8-0.3,1.4-0.3
	c5.7,0,20.8,11.4,32.8,32.1C93.5,266.3,93.3,282.1,88.5,284.9z M133.9,239.5c-2.8,4.8-18.6,5-39.9-7.3c-22.7-13.1-34.2-30-31.8-34.1
	c2.4-4.2,22.7-2.6,45.4,10.5C128.9,220.9,136.7,234.7,133.9,239.5z M112.3,191.2c-26.2,0-44.6-8.9-44.6-13.7s18.4-13.7,44.6-13.7
	c24.6,0,38.2,8.1,38.2,13.7S136.9,191.2,112.3,191.2z"/>
<path d="M26.7,296.5c-1.4,0-2.7,0.6-3.7,1.5s-1.5,2.3-1.5,3.7c0,1.4,0.6,2.7,1.5,3.7s2.3,1.5,3.7,1.5s2.7-0.6,3.7-1.5
	s1.5-2.3,1.5-3.7c0-1.4-0.6-2.7-1.5-3.7S28.1,296.5,26.7,296.5z"/>
</svg>
