<?xml version="1.0" encoding="iso-8859-1"?>
<!-- Generator: Adobe Illustrator 19.0.0, SVG Export Plug-In . SVG Version: 6.00 Build 0)  -->
<svg version="1.1" id="Capa_1" xmlns="http://www.w3.org/2000/svg" xmlns:xlink="http://www.w3.org/1999/xlink" x="0px" y="0px"
	 viewBox="0 0 512 512" style="enable-background:new 0 0 512 512;" xml:space="preserve">
<path style="fill:#6DC82A;" d="M263.81,512c-4.212,0-7.627-3.414-7.627-7.627V227.281c0-4.213,3.415-7.627,7.627-7.627
	c4.212,0,7.627,3.414,7.627,7.627v277.092C271.436,508.586,268.022,512,263.81,512z"/>
<path style="fill:#F21897;" d="M255.529,163.523c-0.013-0.049-0.024-0.101-0.037-0.15c12.266-47.688,33.558-76.524,52.357-93.628
	C299.518,28.874,279.224,0,255.492,0c-23.729,0-44.02,28.868-52.354,69.732C221.955,86.852,243.271,115.751,255.529,163.523z"/>
<path style="fill:#B72391;" d="M206.817,54.969c-1.403,4.711-2.635,9.642-3.679,14.763c18.817,17.12,40.132,46.018,52.391,93.791
	c-0.013-0.049-0.024-0.101-0.037-0.15c3.154-12.263,6.908-23.271,11.06-33.161C248.988,87.758,224.035,65.774,206.817,54.969z"/>
<g>
	<path style="fill:#8DCE55;" d="M263.809,414.796v13.632c0,0.804,0.652,1.456,1.456,1.456h39.033
		c22.656,0,41.192-18.537,41.192-41.192V375.06c0-0.804-0.652-1.456-1.456-1.456h-39.033
		C282.346,373.604,263.809,392.14,263.809,414.796z"/>
	<path style="fill:#8DCE55;" d="M263.809,358.515v13.632c0,0.804-0.652,1.456-1.456,1.456H223.32
		c-22.656,0-41.192-18.537-41.192-41.192v-13.632c0-0.804,0.652-1.456,1.456-1.456h39.033
		C245.273,317.322,263.809,335.858,263.809,358.515z"/>
</g>
<g>
	<path style="fill:#6DC82A;" d="M284.149,428.428v-13.632c0-22.656,18.537-41.192,41.192-41.192h-20.339
		c-22.656,0-41.192,18.537-41.192,41.192v13.632c0,0.804,0.652,1.456,1.456,1.456h20.339
		C284.801,429.884,284.149,429.232,284.149,428.428z"/>
	<path style="fill:#6DC82A;" d="M202.467,332.411v-13.632c0-0.804,0.652-1.456,1.456-1.456h-20.339
		c-0.804,0-1.456,0.652-1.456,1.456v13.632c0,22.656,18.537,41.192,41.192,41.192h20.339
		C221.004,373.604,202.467,355.067,202.467,332.411z"/>
</g>
<path style="fill:#CC905E;" d="M320.974,512h-110.58c-4.212,0-7.627-3.414-7.627-7.627s3.415-7.627,7.627-7.627h110.58
	c4.212,0,7.627,3.414,7.627,7.627S325.186,512,320.974,512z"/>
<path style="fill:#F446AC;" d="M333.544,50.039c-19.52,9.854-60.098,38.555-79.069,112.318
	c6.277,24.408,10.191,53.745,10.191,88.971h2.296c42.809,0,77.511-34.703,77.511-77.511V56.805
	C344.474,51.188,338.559,47.506,333.544,50.039z"/>
<path style="fill:#F21897;" d="M265.832,128.478c-4.271,10.074-8.127,21.322-11.357,33.878c6.277,24.407,10.191,53.744,10.191,88.97
	c0.011,0,0.022,0.001,0.033,0.001h2.263c7.062,0,13.895-0.962,20.397-2.731C287.057,196.625,278.189,157.622,265.832,128.478z"/>
<path style="fill:#F446AC;" d="M266.7,251.327h-22.68c-42.808,0-77.511-34.703-77.511-77.511V56.806
	c0-5.617,5.915-9.298,10.93-6.767C203.418,63.153,266.7,109.642,266.7,251.327z"/>
<path style="fill:#F21897;" d="M186.849,173.815V56.806c0-0.452,0.051-0.886,0.124-1.31c-3.523-2.253-6.744-4.049-9.532-5.456
	c-5.015-2.532-10.93,1.149-10.93,6.767v117.009c0,42.808,34.703,77.511,77.511,77.511h20.339
	C221.552,251.327,186.849,216.624,186.849,173.815z"/>
<g>
</g>
<g>
</g>
<g>
</g>
<g>
</g>
<g>
</g>
<g>
</g>
<g>
</g>
<g>
</g>
<g>
</g>
<g>
</g>
<g>
</g>
<g>
</g>
<g>
</g>
<g>
</g>
<g>
</g>
</svg>
